<?xml version="1.0" encoding="UTF-8"?>
<svg version="1.1" xmlns="http://www.w3.org/2000/svg" width="602" height="337">
<path d="M0 0 C4.30543598 0.8610872 6.29135503 1.52235967 9.89453125 3.66796875 C11.30895508 4.50231445 11.30895508 4.50231445 12.75195312 5.35351562 C13.76193359 5.95873047 14.77191406 6.56394531 15.8125 7.1875 C17.98556541 8.47284507 20.15874566 9.757996 22.33203125 11.04296875 C23.44143066 11.70216309 24.55083008 12.36135742 25.69384766 13.04052734 C30.77974109 16.05480741 35.89027657 19.02636386 41 22 C42.98316677 23.15739127 44.9662392 24.31494422 46.94921875 25.47265625 C51.1150403 27.90311518 55.28483998 30.32658665 59.45703125 32.74609375 C61.05321289 33.67325195 61.05321289 33.67325195 62.68164062 34.61914062 C64.6935906 35.78765305 66.70653007 36.95446433 68.72070312 38.11914062 C70.51990852 39.16501508 72.30578486 40.23435521 74.07373047 41.33224487 C76.91900943 43.0641521 76.91900943 43.0641521 79.90368652 44.04824829 C83.52911876 45.60302319 85.48469016 46.92603266 88 50 C90.10664912 57.26582565 89.27334045 65.30579624 89.07421875 72.77734375 C89.05369111 75.03174542 89.03803834 77.28619631 89.02705383 79.54066467 C88.98514056 85.4619704 88.8771698 91.38028696 88.75531006 97.30041504 C88.64258924 103.34634969 88.59250318 109.39276958 88.53710938 115.43945312 C88.41929175 127.29427901 88.2316648 139.14689054 88 151 C84.5938191 150.37395965 82.17483314 149.74007716 79.30078125 147.78515625 C78.64916016 147.34623047 77.99753906 146.90730469 77.32617188 146.45507812 C76.66166016 145.99552734 75.99714844 145.53597656 75.3125 145.0625 C74.63638672 144.60681641 73.96027344 144.15113281 73.26367188 143.68164062 C70.63918409 141.8980335 68.24969744 140.24969744 66 138 C65.81230482 135.56062946 65.74801395 133.23585272 65.77294922 130.79638672 C65.77265717 130.0548233 65.77236511 129.31325989 65.77206421 128.54922485 C65.77346006 126.09259429 65.78903302 123.63626522 65.8046875 121.1796875 C65.80841673 119.47860886 65.81126413 117.77752808 65.81326294 116.07644653 C65.82090651 111.59489024 65.84056116 107.11346317 65.8626709 102.63195801 C65.88311378 98.06064604 65.89226132 93.48931323 65.90234375 88.91796875 C65.92380641 79.94525566 65.95795104 70.97263857 66 62 C65.113125 61.71125 64.22625 61.4225 63.3125 61.125 C60.50957267 60.17306241 57.74844577 59.09937831 55 58 C55 82.42 55 106.84 55 132 C49 130 49 130 33 121 C33 95.26 33 69.52 33 43 C31.35 42.34 29.7 41.68 28 41 C26.02 40.01 24.04 39.02 22 38 C22 63.08 22 88.16 22 114 C16 112 16 112 0 103 C0 69.01 0 35.02 0 0 Z " fill="#060606" transform="translate(22,120)"/>
<path d="M0 0 C1.23991823 3.7197547 0.59782832 4.80504858 -0.73828125 8.43359375 C-1.14183838 9.54452393 -1.54539551 10.6554541 -1.96118164 11.80004883 C-2.4071167 13.00040771 -2.85305176 14.2007666 -3.3125 15.4375 C-3.99856079 17.32315192 -4.68461048 19.20880797 -5.36997986 21.0947113 C-6.33079482 23.73281697 -7.29929698 26.3680778 -8.26733398 29.00354004 C-9.93340288 33.54345287 -11.59006095 38.08673049 -13.2331543 42.63500977 C-14.10306504 45.04152317 -14.97928621 47.44576713 -15.86254883 49.84741211 C-16.96086069 52.88397377 -18.00389441 55.92858271 -19 59 C-19.23750977 59.69432129 -19.47501953 60.38864258 -19.71972656 61.10400391 C-20.32336369 63.07314296 -20.32336369 63.07314296 -20 66 C-18.23676952 68.66066207 -16.00599297 70.64498167 -13.625 72.75 C-12.32996991 73.97170493 -11.03831607 75.19699829 -9.75 76.42578125 C-9.11191406 77.02729004 -8.47382813 77.62879883 -7.81640625 78.24853516 C-5.26842714 80.70541716 -2.93505395 83.25354309 -0.625 85.9375 C0.08398438 86.75089844 0.79296875 87.56429687 1.5234375 88.40234375 C3.60308472 92.06098238 3.95353962 93.86799498 3 98 C0.13367127 100.53697766 -3.10943591 102.19398802 -6.5 103.9375 C-7.40621094 104.43056641 -8.31242187 104.92363281 -9.24609375 105.43164062 C-11.48563008 106.64570506 -13.73556498 107.83323274 -16 109 C-20.54822201 106.59509597 -23.77351595 103.4632867 -27.3125 99.8125 C-27.86228516 99.25369141 -28.41207031 98.69488281 -28.97851562 98.11914062 C-30.32363696 96.75062588 -31.66246643 95.37593167 -33 94 C-35.50389163 96.50389163 -36.43408253 98.9417175 -37.86328125 102.1875 C-38.27407173 103.11320801 -38.27407173 103.11320801 -38.69316101 104.05761719 C-39.570655 106.03650764 -40.44198514 108.01803066 -41.3125 110 C-43.00582144 113.84303288 -44.7052237 117.68274131 -46.43554688 121.50927734 C-47.39579575 123.65185513 -48.33044271 125.8064124 -49.22070312 127.97900391 C-52.10118268 134.59056617 -55.43207957 137.29636314 -61.875 140.375 C-63.43494842 141.17437655 -64.99484496 141.97385435 -66.5546875 142.7734375 C-67.30331055 143.14307617 -68.05193359 143.51271484 -68.82324219 143.89355469 C-70.91289203 144.95572305 -72.92674437 146.09841045 -74.9453125 147.2890625 C-78 149 -78 149 -80 149 C-77.59875182 140.92307432 -74.10276743 133.40964069 -70.56149292 125.78713989 C-68.75929983 121.90405444 -66.97714294 118.01176678 -65.19140625 114.12109375 C-64.47679315 112.56621229 -63.76211307 111.0113616 -63.04736328 109.45654297 C-62.36484882 107.97105623 -61.68239214 106.48554294 -61 105 C-60.6890741 104.3233429 -60.37814819 103.64668579 -60.05780029 102.94952393 C-58.1663771 98.82849647 -56.29659645 94.69824398 -54.4375 90.5625 C-53.96699219 89.54027344 -53.49648437 88.51804687 -53.01171875 87.46484375 C-52.5940625 86.52898437 -52.17640625 85.593125 -51.74609375 84.62890625 C-51.38185303 83.82525635 -51.0176123 83.02160645 -50.64233398 82.19360352 C-49.88367526 79.60274504 -50.1300989 78.52656613 -51 76 C-52.96194357 73.84153147 -54.92689127 71.84406575 -57.0390625 69.84375 C-58.2710799 68.64478456 -59.50284314 67.44555791 -60.734375 66.24609375 C-62.68354397 64.36541176 -64.63654215 62.48897001 -66.59472656 60.61767578 C-68.48272183 58.80791236 -70.35522432 56.98320875 -72.2265625 55.15625 C-72.81917877 54.59885132 -73.41179504 54.04145264 -74.02236938 53.46716309 C-75.65087891 51.86914062 -75.65087891 51.86914062 -78 49 C-77.77043152 46.91889954 -77.77043152 46.91889954 -77 45 C-75.0222168 43.4284668 -75.0222168 43.4284668 -72.44921875 41.94921875 C-71.52302734 41.41619141 -70.59683594 40.88316406 -69.64257812 40.33398438 C-68.66740234 39.79064453 -67.69222656 39.24730469 -66.6875 38.6875 C-65.72392578 38.12482422 -64.76035156 37.56214844 -63.76757812 36.98242188 C-56.65596223 32.95595605 -56.65596223 32.95595605 -53.92016602 33.13964844 C-51.54388986 34.20436518 -50.14545507 35.51457626 -48.328125 37.37890625 C-47.66425781 38.05244141 -47.00039062 38.72597656 -46.31640625 39.41992188 C-45.63449219 40.12697266 -44.95257813 40.83402344 -44.25 41.5625 C-43.20392578 42.62887695 -43.20392578 42.62887695 -42.13671875 43.71679688 C-40.4175342 45.47130714 -38.70574128 47.23243352 -37 49 C-33.91500982 47.45750491 -33.47019142 44.95751715 -32.1015625 41.83984375 C-31.82533051 41.21654678 -31.54909851 40.59324982 -31.26449585 39.95106506 C-30.37853996 37.94918062 -29.50141185 35.94357882 -28.625 33.9375 C-26.43243208 28.95123513 -24.22612558 23.97137858 -22 19 C-21.4265686 17.70993042 -21.4265686 17.70993042 -20.84155273 16.39379883 C-19.04055963 12.53743507 -17.50439929 9.99805058 -13.8125 7.8125 C-13.03648437 7.34199219 -12.26046875 6.87148437 -11.4609375 6.38671875 C-10.64882812 5.92910156 -9.83671875 5.47148437 -9 5 C-7.71996094 4.26716797 -7.71996094 4.26716797 -6.4140625 3.51953125 C-4.28793212 2.32232534 -2.15204294 1.14979126 0 0 Z " fill="#0A0A0A" transform="translate(197,124)"/>
<path d="M0 0 C3.96569846 1.42113557 7.33209193 3.55540472 10.8828125 5.80078125 C11.66978516 6.29070557 12.45675781 6.78062988 13.26757812 7.28540039 C15.76893904 8.84578022 18.26331806 10.41695382 20.7578125 11.98828125 C22.34862411 12.98100453 23.93976475 13.97320077 25.53125 14.96484375 C27.10724743 15.95106171 28.68276953 16.93803968 30.2578125 17.92578125 C31.03672852 18.41361084 31.81564453 18.90144043 32.61816406 19.40405273 C36.74064141 22.0076107 40.7899277 24.68332479 44.78125 27.484375 C45.59529297 28.04970947 46.40933594 28.61504395 47.24804688 29.19750977 C48.80485685 30.28494982 50.35108902 31.38773835 51.88476562 32.50756836 C52.58279297 32.99362549 53.28082031 33.47968262 54 33.98046875 C54.6069873 34.4172998 55.21397461 34.85413086 55.83935547 35.30419922 C57.82365845 36.22161043 57.82365845 36.22161043 60.15942383 35.30029297 C62.85380342 33.93981228 65.47964431 32.52026603 68.08984375 31.00390625 C69.12455811 30.40489502 70.15927246 29.80588379 71.2253418 29.1887207 C72.32918213 28.54507568 73.43302246 27.90143066 74.5703125 27.23828125 C75.72355656 26.56898288 76.87696057 25.89996003 78.03051758 25.23120117 C81.60906094 23.15498703 85.18367625 21.07207012 88.7578125 18.98828125 C89.89702148 18.3245752 91.03623047 17.66086914 92.20996094 16.97705078 C97.38814033 13.95958854 102.56438887 10.93886871 107.73828125 7.9140625 C108.60630371 7.41213379 109.47432617 6.91020508 110.36865234 6.39306641 C111.86441014 5.5135865 113.34674846 4.6103912 114.80712891 3.67333984 C119.16163042 0.93170349 119.16163042 0.93170349 122.16577148 1.21679688 C126.83220294 2.60569425 130.53474412 5.55775578 134.5078125 8.30078125 C135.82072266 9.17379883 135.82072266 9.17379883 137.16015625 10.06445312 C137.99160156 10.63357422 138.82304687 11.20269531 139.6796875 11.7890625 C140.81809082 12.56503784 140.81809082 12.56503784 141.97949219 13.35668945 C143.99324022 15.20428392 144.39445475 16.31991805 144.7578125 18.98828125 C141.34187094 21.07280519 137.92504186 23.15586914 134.5078125 25.23828125 C133.46165771 25.87580322 132.41550293 26.5133252 131.33764648 27.17016602 C125.64010006 30.63821899 119.93242659 34.08760651 114.20385742 37.50415039 C103.84385078 43.68322636 93.5972608 50.03497541 83.37890625 56.4453125 C82.45062012 57.0223291 81.52233398 57.5993457 80.56591797 58.19384766 C78.63120184 59.4301686 76.72488377 60.71169488 74.84423828 62.02880859 C67.74134039 66.91787915 67.74134039 66.91787915 63.1015625 67.25 C58.74019636 65.60429759 55.11694138 63.39263574 51.2578125 60.80078125 C49.55566176 59.6964136 47.85249358 58.59361291 46.1484375 57.4921875 C45.26220703 56.91484863 44.37597656 56.33750977 43.46289062 55.74267578 C28.5808097 46.09081355 13.32110781 37.46890168 -2.50878906 29.49316406 C-19.72347631 20.81353132 -19.72347631 20.81353132 -23.2421875 17.98828125 C-23.2421875 16.99828125 -23.2421875 16.00828125 -23.2421875 14.98828125 C-21.74511719 13.59375 -21.74511719 13.59375 -19.6640625 12.17578125 C-18.91511719 11.65757813 -18.16617188 11.139375 -17.39453125 10.60546875 C-16.20537109 9.80496094 -16.20537109 9.80496094 -14.9921875 8.98828125 C-13.44509483 7.92609822 -11.89821313 6.86360784 -10.3515625 5.80078125 C-9.66030273 5.33285156 -8.96904297 4.86492187 -8.25683594 4.3828125 C-6.84594825 3.40620193 -5.47060067 2.37715245 -4.12548828 1.31176758 C-2.2421875 -0.01171875 -2.2421875 -0.01171875 0 0 Z " fill="#060606" transform="translate(51.2421875,97.01171875)"/>
<path d="M0 0 C4.24951208 -0.29939657 8.49328711 -0.51550918 12.75024414 -0.65917969 C14.19338918 -0.71910266 15.63581839 -0.80069404 17.07641602 -0.90527344 C28.69823395 -1.72705883 28.69823395 -1.72705883 32.57843018 1.18432617 C35.84177573 4.53005067 40 9.19166091 40 14 C43.90474767 12.69841744 44.73350273 10.91016149 47.0625 7.5625 C50.85652174 2.14347826 50.85652174 2.14347826 53 0 C55.98095703 -0.22705078 55.98095703 -0.22705078 59.7578125 -0.1953125 C60.75238968 -0.19106766 60.75238968 -0.19106766 61.76705933 -0.18673706 C63.88655583 -0.17553435 66.00563104 -0.15043051 68.125 -0.125 C69.56119182 -0.11497028 70.99739025 -0.10584441 72.43359375 -0.09765625 C75.95586628 -0.075595 79.47789203 -0.04106494 83 0 C79.94481997 5.60488015 76.45151163 10.724333 72.6875 15.875 C71.82680908 17.0664563 71.82680908 17.0664563 70.94873047 18.28198242 C67.4709499 23.07364586 63.90271857 27.73792237 59.9765625 32.17578125 C58.82147888 33.98861644 58.82147888 33.98861644 59 36.26953125 C60.43716233 40.19365809 62.80761592 43.10893772 65.375 46.375 C66.46160771 47.79115267 67.54752798 49.20783303 68.6328125 50.625 C69.1887207 51.34558594 69.74462891 52.06617188 70.31738281 52.80859375 C73.00004897 56.30244335 75.63115367 59.83318166 78.25 63.375 C78.72743652 64.01099121 79.20487305 64.64698242 79.69677734 65.30224609 C83 69.76972938 83 69.76972938 83 72 C55.98266997 74.07429074 55.98266997 74.07429074 49.55029297 70.72412109 C45.84215324 67.45397393 43.76313339 63.56783313 42 59 C38.51918112 62.20888805 38.51918112 62.20888805 35.89013672 66.09570312 C34.46994693 68.65995061 33.34526726 70.21474898 31 72 C25.68617586 73.00660371 20.49196165 72.75511118 15.125 72.5 C13.65895105 72.45983428 12.19279666 72.42333884 10.7265625 72.390625 C7.14883746 72.30283567 3.5750914 72.16501398 0 72 C1.38581243 69.04183144 2.9953288 66.49596344 4.94140625 63.875 C5.52132324 63.0910083 6.10124023 62.3070166 6.69873047 61.49926758 C7.31377441 60.67450928 7.92881836 59.84975098 8.5625 59 C9.18785645 58.15655029 9.81321289 57.31310059 10.45751953 56.4440918 C12.3011912 53.9598545 14.14946814 51.47913008 16 49 C16.50740723 48.32018066 17.01481445 47.64036133 17.53759766 46.93994141 C20.01749837 43.62090439 22.50459353 40.30740382 25 37 C21.9658949 31.43256443 18.4977746 26.35901773 14.75 21.25 C13.89208862 20.07062866 13.89208862 20.07062866 13.0168457 18.86743164 C10.47695011 15.37789511 7.92515728 11.89714193 5.37109375 8.41796875 C4.65050781 7.43441406 3.92992187 6.45085937 3.1875 5.4375 C2.56230469 4.59058594 1.93710937 3.74367187 1.29296875 2.87109375 C0 1 0 1 0 0 Z " fill="#CD0606" transform="translate(490,137)"/>
<path d="M0 0 C1.30710938 -0.0309375 2.61421875 -0.061875 3.9609375 -0.09375 C8.54988504 0.64987476 9.79064366 1.87261132 12.625 5.5 C13.97380809 7.72540291 15.24578279 9.99916659 16.4375 12.3125 C17.04207031 13.47394531 17.64664063 14.63539063 18.26953125 15.83203125 C18.94048828 17.15267578 18.94048828 17.15267578 19.625 18.5 C20.285 18.5 20.945 18.5 21.625 18.5 C22.54732422 16.80230469 22.54732422 16.80230469 23.48828125 15.0703125 C24.3043081 13.5883327 25.12073526 12.10657326 25.9375 10.625 C26.34162109 9.87863281 26.74574219 9.13226563 27.16210938 8.36328125 C27.75668945 7.29013672 27.75668945 7.29013672 28.36328125 6.1953125 C28.72462158 5.53547363 29.08596191 4.87563477 29.45825195 4.19580078 C30.625 2.5 30.625 2.5 33.625 0.5 C36.1712391 0.30501773 38.58243895 0.22094216 41.125 0.25 C41.80175781 0.24226562 42.47851562 0.23453125 43.17578125 0.2265625 C46.87419257 0.24115189 48.47103337 0.39735558 51.625 2.5 C51.99249268 4.97364807 51.99249268 4.97364807 51.98144531 8.12719727 C51.98444641 9.30504288 51.98744751 10.48288849 51.99053955 11.69642639 C51.97819275 12.97351974 51.96584595 14.2506131 51.953125 15.56640625 C51.95125183 16.87077133 51.94937866 18.17513641 51.94744873 19.51902771 C51.94284375 22.28063313 51.92840969 25.04194726 51.90625 27.8034668 C51.87793963 31.35020646 51.86703607 34.89671678 51.8625679 38.44355869 C51.85742168 41.81787686 51.84288147 45.19211551 51.828125 48.56640625 C51.82387512 49.84552383 51.81962524 51.12464142 51.81524658 52.44252014 C51.80563904 53.61721359 51.79603149 54.79190704 51.78613281 56.00219727 C51.77930481 57.04207291 51.77247681 58.08194855 51.76544189 59.15333557 C51.625 61.5 51.625 61.5 50.625 62.5 C49.29456375 62.5983721 47.95906656 62.63078592 46.625 62.6328125 C45.820625 62.63410156 45.01625 62.63539063 44.1875 62.63671875 C43.341875 62.63285156 42.49625 62.62898438 41.625 62.625 C40.779375 62.62886719 39.93375 62.63273437 39.0625 62.63671875 C38.258125 62.63542969 37.45375 62.63414062 36.625 62.6328125 C35.8825 62.63168457 35.14 62.63055664 34.375 62.62939453 C32.625 62.5 32.625 62.5 31.625 61.5 C31.4665735 59.4291528 31.37375578 57.35321971 31.30859375 55.27734375 C31.26669922 54.01728516 31.22480469 52.75722656 31.18164062 51.45898438 C31.14182404 50.11849264 31.10211186 48.7779978 31.0625 47.4375 C31.01931958 46.09308477 30.97570544 44.7486834 30.93164062 43.40429688 C30.82514642 40.1029766 30.7231354 36.80157764 30.625 33.5 C30.27566406 34.06589844 29.92632812 34.63179687 29.56640625 35.21484375 C29.11136719 35.94832031 28.65632813 36.68179688 28.1875 37.4375 C27.73503906 38.16839844 27.28257812 38.89929688 26.81640625 39.65234375 C25.625 41.5 25.625 41.5 24.625 42.5 C21.69842706 42.78785963 19.4725532 42.99401995 16.625 42.5 C13.48104768 39.60425444 12.00025715 36.5111667 10.625 32.5 C9.965 32.5 9.305 32.5 8.625 32.5 C8.625 42.4 8.625 52.3 8.625 62.5 C2.685 62.5 -3.255 62.5 -9.375 62.5 C-10.67285903 59.90428195 -10.51626772 57.99489827 -10.53613281 55.08813477 C-10.54574036 53.95678604 -10.5553479 52.82543732 -10.56524658 51.6598053 C-10.56949646 50.43273361 -10.57374634 49.20566193 -10.578125 47.94140625 C-10.58382507 46.68617661 -10.58952515 45.43094696 -10.59539795 44.13768005 C-10.60485771 41.47871267 -10.61174972 38.81985844 -10.61523438 36.16088867 C-10.62072275 32.75321817 -10.64475869 29.34594653 -10.67320633 25.93840122 C-10.69630299 22.68943296 -10.69828018 19.44044514 -10.703125 16.19140625 C-10.7154718 14.9663588 -10.7278186 13.74131134 -10.74053955 12.47914124 C-10.73753845 11.34464035 -10.73453735 10.21013947 -10.73144531 9.04125977 C-10.73509094 8.04135513 -10.73873657 7.0414505 -10.74249268 6.01124573 C-10.375 3.5 -10.375 3.5 -9.06512451 1.68296814 C-6.22492088 -0.3049744 -3.39584555 0.02668641 0 0 Z " fill="#090909" transform="translate(224.375,141.5)"/>
<path d="M0 0 C1.14082031 -0.01998047 2.28164063 -0.03996094 3.45703125 -0.06054688 C5.10251953 -0.05958008 5.10251953 -0.05958008 6.78125 -0.05859375 C8.28268555 -0.06137329 8.28268555 -0.06137329 9.81445312 -0.06420898 C13.27748774 0.58274885 14.3419348 1.6896766 16.5 4.4375 C26.51547679 22.3691241 28.74631574 41.31131684 26.5 61.4375 C25.5 62.4375 25.5 62.4375 23.73413086 62.55102539 C22.98526611 62.54578857 22.23640137 62.54055176 21.46484375 62.53515625 C20.65595703 62.53193359 19.84707031 62.52871094 19.01367188 62.52539062 C18.16353516 62.51701172 17.31339844 62.50863281 16.4375 62.5 C15.58349609 62.49548828 14.72949219 62.49097656 13.84960938 62.48632812 C11.73304337 62.47450373 9.61651315 62.45656769 7.5 62.4375 C7.17 57.8175 6.84 53.1975 6.5 48.4375 C-0.43 47.9425 -0.43 47.9425 -7.5 47.4375 C-7.479375 49.54125 -7.45875 51.645 -7.4375 53.8125 C-7.375 60.1875 -7.375 60.1875 -8.5 62.4375 C-14.44 62.4375 -20.38 62.4375 -26.5 62.4375 C-28.55672562 58.32404876 -27.72930348 53.01960237 -27.75 48.5 C-27.770625 47.40880859 -27.79125 46.31761719 -27.8125 45.19335938 C-27.84778897 37.77826555 -26.86781857 31.45470219 -24.5 24.4375 C-24.19239746 23.52105713 -23.88479492 22.60461426 -23.56787109 21.66040039 C-22.60718386 18.90235293 -21.59441427 16.16961588 -20.5625 13.4375 C-20.22798828 12.51066406 -19.89347656 11.58382812 -19.54882812 10.62890625 C-19.21431641 9.74074219 -18.87980469 8.85257813 -18.53515625 7.9375 C-18.2400415 7.1434375 -17.94492676 6.349375 -17.64086914 5.53125 C-13.86166392 -1.40443671 -6.92098625 -0.04301178 0 0 Z M-2.5 17.4375 C-3.17756882 18.99530332 -3.84159457 20.55900096 -4.5 22.125 C-4.87125 22.99511719 -5.2425 23.86523438 -5.625 24.76171875 C-6.75900931 27.76035739 -6.75900931 27.76035739 -6.5 32.4375 C-2.54 32.4375 1.42 32.4375 5.5 32.4375 C4.82584613 27.1790998 3.25734451 22.41111654 1.5 17.4375 C0.18 17.4375 -1.14 17.4375 -2.5 17.4375 Z " fill="#070707" transform="translate(325.5,141.5625)"/>
<path d="M0 0 C1.10347778 0.00213753 1.10347778 0.00213753 2.22924805 0.00431824 C3.06351318 0.00124161 3.89777832 -0.00183502 4.75732422 -0.00500488 C5.65942627 0.00218063 6.56152832 0.00936615 7.4909668 0.01676941 C8.87795776 0.01745674 8.87795776 0.01745674 10.29296875 0.01815796 C12.24993166 0.02118191 14.20689212 0.02907247 16.16381836 0.04142761 C19.16618336 0.05966355 22.16823975 0.06193746 25.1706543 0.06169128 C27.06909447 0.06660719 28.96753255 0.07243582 30.8659668 0.07926941 C31.76806885 0.08038223 32.6701709 0.08149506 33.59960938 0.0826416 C34.43387451 0.08902145 35.26813965 0.09540131 36.12768555 0.10197449 C36.8633374 0.10578629 37.59898926 0.10959808 38.35693359 0.11352539 C40.1784668 0.24723816 40.1784668 0.24723816 42.1784668 1.24723816 C42.20531775 3.72647617 42.22523227 6.20542656 42.2409668 8.68473816 C42.2493457 9.39178894 42.25772461 10.09883972 42.26635742 10.82731628 C42.27500267 12.63417375 42.23066691 14.44111419 42.1784668 16.24723816 C40.43340064 17.99230431 37.98807536 17.480066 35.61206055 17.56364441 C34.48735352 17.60553894 33.36264648 17.64743347 32.20385742 17.69059753 C31.01985352 17.72991394 29.83584961 17.76923035 28.6159668 17.80973816 C27.4280957 17.85292175 26.24022461 17.89610535 25.01635742 17.94059753 C22.07051895 18.04707362 19.1245925 18.14908657 16.1784668 18.24723816 C15.8484668 19.89723816 15.5184668 21.54723816 15.1784668 23.24723816 C16.03396118 23.23938293 16.03396118 23.23938293 16.90673828 23.23136902 C19.47647003 23.21065595 22.04618426 23.19759626 24.6159668 23.18473816 C25.96271484 23.1721698 25.96271484 23.1721698 27.33666992 23.15934753 C28.19067383 23.15612488 29.04467773 23.15290222 29.92456055 23.14958191 C30.71531982 23.14434509 31.5060791 23.13910828 32.32080078 23.13371277 C34.1784668 23.24723816 34.1784668 23.24723816 35.1784668 24.24723816 C35.25118421 26.60037371 35.26217548 28.95557484 35.2409668 31.30973816 C35.23194336 32.60008972 35.22291992 33.89044128 35.21362305 35.21989441 C35.20202148 36.21891785 35.19041992 37.21794128 35.1784668 38.24723816 C32.8819298 39.39550666 31.59533512 39.36284991 29.0456543 39.34489441 C28.23999023 39.34167175 27.43432617 39.3384491 26.60424805 39.33512878 C25.34161133 39.32256042 25.34161133 39.32256042 24.0534668 39.30973816 C22.77922852 39.30297058 22.77922852 39.30297058 21.47924805 39.29606628 C19.37895771 39.2842669 17.27870349 39.26633122 15.1784668 39.24723816 C15.5084668 41.22723816 15.8384668 43.20723816 16.1784668 45.24723816 C29.0484668 45.74223816 29.0484668 45.74223816 42.1784668 46.24723816 C42.1990918 48.70161316 42.2197168 51.15598816 42.2409668 53.68473816 C42.2500708 54.45873962 42.2591748 55.23274109 42.26855469 56.03019714 C42.27571593 57.76945533 42.22871382 59.5086912 42.1784668 61.24723816 C40.63345229 62.79225266 39.1918646 62.37442947 37.04174805 62.37663269 C35.72533325 62.38136093 35.72533325 62.38136093 34.38232422 62.38618469 C33.42817627 62.38416046 32.47402832 62.38213623 31.4909668 62.38005066 C30.03170776 62.38148575 30.03170776 62.38148575 28.54296875 62.38294983 C26.4816888 62.38363174 24.42040671 62.38177668 22.35913086 62.37760925 C19.19208991 62.37226116 16.0251908 62.37755388 12.8581543 62.38395691 C10.86075815 62.38329613 8.86336209 62.38201497 6.8659668 62.38005066 C5.91181885 62.38207489 4.9576709 62.38409912 3.97460938 62.38618469 C3.09699951 62.38303253 2.21938965 62.37988037 1.31518555 62.37663269 C0.53876709 62.3758371 -0.23765137 62.3750415 -1.03759766 62.3742218 C-2.8215332 62.24723816 -2.8215332 62.24723816 -3.8215332 61.24723816 C-3.92582195 59.41696644 -3.96007694 57.5826636 -3.96679688 55.74943542 C-3.97317673 54.57474197 -3.97955658 53.40004852 -3.98612976 52.1897583 C-3.98724258 50.91064072 -3.98835541 49.63152313 -3.98950195 48.31364441 C-3.99283035 47.01023605 -3.99615875 45.7068277 -3.99958801 44.36392212 C-4.00558521 41.60065381 -4.00742732 38.83741681 -4.00683594 36.07414246 C-4.0067343 32.52855343 -4.02038551 28.98316458 -4.03760815 25.43762302 C-4.05138334 22.06296017 -4.05081643 18.68833506 -4.05200195 15.31364441 C-4.05918747 14.03655106 -4.06637299 12.7594577 -4.07377625 11.44366455 C-4.07069962 10.26581894 -4.06762299 9.08797333 -4.06445312 7.87443542 C-4.06587814 6.83376419 -4.06730316 5.79309296 -4.06877136 4.72088623 C-3.77064789 1.73812437 -3.10834829 0.4218986 0 0 Z " fill="#070707" transform="translate(447.821533203125,141.7527618408203)"/>
<path d="M0 0 C1.22125328 -0.00461494 1.22125328 -0.00461494 2.46717834 -0.00932312 C3.77977882 0.00145515 3.77977882 0.00145515 5.11889648 0.01245117 C6.47047096 0.0131385 6.47047096 0.0131385 7.84934998 0.01383972 C9.75325844 0.01685992 11.65716448 0.02473928 13.56103516 0.03710938 C16.48210356 0.05537062 19.40285507 0.05761899 22.32397461 0.05737305 C24.17228465 0.06228815 26.02059254 0.06811644 27.86889648 0.07495117 C29.18453331 0.07662041 29.18453331 0.07662041 30.52674866 0.07832336 C36.69534753 0.12684857 36.69534753 0.12684857 38.92749023 1.24291992 C40.86889565 18.10438549 40.86889565 18.10438549 36.57202148 24.19995117 C34.08221235 27.1900184 31.32722718 29.9043934 28.53149414 32.60668945 C25.95931694 35.2305451 23.82809849 38.14651609 21.67749023 41.11791992 C20.95045898 42.1053418 20.22342773 43.09276367 19.47436523 44.11010742 C18.96389648 44.81393555 18.45342773 45.51776367 17.92749023 46.24291992 C18.58869873 46.23768311 19.24990723 46.23244629 19.93115234 46.22705078 C22.90908875 46.20634336 25.88701005 46.1932798 28.86499023 46.18041992 C30.42636719 46.16785156 30.42636719 46.16785156 32.01928711 46.1550293 C33.00864258 46.15180664 33.99799805 46.14858398 35.01733398 46.14526367 C35.93377686 46.14002686 36.85021973 46.13479004 37.79443359 46.12939453 C39.92749023 46.24291992 39.92749023 46.24291992 40.92749023 47.24291992 C41.02658326 49.57452047 41.05719528 51.90921934 41.05249023 54.24291992 C41.05635742 56.16104492 41.05635742 56.16104492 41.06030273 58.11791992 C40.92749023 61.24291992 40.92749023 61.24291992 39.92749023 62.24291992 C38.42330284 62.33603882 36.91477667 62.3603802 35.40771484 62.35644531 C33.966334 62.35633202 33.966334 62.35633202 32.49583435 62.35621643 C31.45105423 62.35105515 30.40627411 62.34589386 29.32983398 62.34057617 C28.26583878 62.33916122 27.20184357 62.33774628 26.10560608 62.33628845 C22.6920394 62.33067056 19.27853724 62.31811503 15.86499023 62.30541992 C13.55704847 62.30040723 11.24910568 62.29584392 8.94116211 62.29174805 C3.26991597 62.28069532 -2.40129229 62.26393979 -8.07250977 62.24291992 C-8.99810254 44.21538626 -8.99810254 44.21538626 -5.79907227 39.87963867 C-4.31176758 38.34106445 -4.31176758 38.34106445 -2.69750977 36.93041992 C-1.59777804 35.82047499 -0.50149392 34.70710499 0.59155273 33.59057617 C1.14746094 33.04675293 1.70336914 32.50292969 2.27612305 31.94262695 C5.01275055 29.12589119 7.33040556 26.00970247 9.67749023 22.86791992 C11.07999023 21.01166992 12.48249023 19.15541992 13.92749023 17.24291992 C7.32749023 17.24291992 0.72749023 17.24291992 -6.07250977 17.24291992 C-7.49498723 14.39796499 -7.28044578 11.91174032 -7.32250977 8.74291992 C-7.34829102 7.57760742 -7.37407227 6.41229492 -7.40063477 5.21166992 C-7.23821289 3.74213867 -7.23821289 3.74213867 -7.07250977 2.24291992 C-4.01854052 0.20694043 -3.4299768 -0.00682969 0 0 Z " fill="#070707" transform="translate(381.072509765625,141.757080078125)"/>
<path d="M0 0 C3.10961543 1.323383 5.77927787 3.20168061 8.53027344 5.13598633 C9.13661621 5.55392456 9.74295898 5.97186279 10.36767578 6.40246582 C12.95468105 8.1859013 15.53202185 9.98310829 18.11035156 11.77905273 C19.99705833 13.09032346 21.88850503 14.39453355 23.78027344 15.69848633 C24.3595459 16.10578979 24.93881836 16.51309326 25.53564453 16.93273926 C29.52203474 19.74793953 29.52203474 19.74793953 34.15527344 20.91723633 C36.45876003 19.69491685 38.46630961 18.45956478 40.59277344 16.97973633 C41.83840138 16.15091085 43.08450695 15.3228028 44.33105469 14.49536133 C45.60610548 13.63644813 46.88084651 12.77707492 48.15527344 11.91723633 C50.51559085 10.3308647 52.89054798 8.77137256 55.28027344 7.22973633 C56.31410156 6.54524414 57.34792969 5.86075195 58.41308594 5.15551758 C61.15527344 3.91723633 61.15527344 3.91723633 63.10058594 4.42114258 C63.77863281 4.91485352 64.45667969 5.40856445 65.15527344 5.91723633 C66.22261719 6.63137695 67.28996094 7.34551758 68.38964844 8.08129883 C69.56337914 8.89895392 70.73521347 9.71933701 71.90527344 10.54223633 C72.50726563 10.9624707 73.10925781 11.38270508 73.72949219 11.81567383 C75.20640387 12.8471677 76.68106538 13.88188212 78.15527344 14.91723633 C76.75936938 18.31613613 75.38166595 19.71853695 72.21777344 21.54614258 C71.41355957 22.01858398 70.6093457 22.49102539 69.78076172 22.9777832 C68.48114502 23.72125 68.48114502 23.72125 67.15527344 24.47973633 C65.33972741 25.54278414 63.52463302 26.60660361 61.70996094 27.67114258 C60.78666992 28.20884277 59.86337891 28.74654297 58.91210938 29.30053711 C54.67005302 31.78821841 50.47369112 34.34868005 46.28027344 36.91723633 C45.55066406 37.36139893 44.82105469 37.80556152 44.06933594 38.26318359 C43.37839844 38.685271 42.68746094 39.1073584 41.97558594 39.54223633 C41.32235352 39.93926758 40.66912109 40.33629883 39.99609375 40.74536133 C38.26402505 41.84800453 36.60787351 43.06738199 34.95996094 44.29223633 C32.15527344 45.91723633 32.15527344 45.91723633 29.78808594 45.99536133 C25.85222526 44.3836439 22.51945474 42.07944437 19.03027344 39.66723633 C18.25055176 39.13727051 17.47083008 38.60730469 16.66748047 38.0612793 C15.01120334 36.93387519 13.3574552 35.80274816 11.70605469 34.66821289 C9.15378579 32.91621514 6.59321287 31.17701638 4.03027344 29.44067383 C2.36326976 28.30835732 0.6965936 27.17555846 -0.96972656 26.04223633 C-1.73816895 25.51984375 -2.50661133 24.99745117 -3.29833984 24.45922852 C-7.03101061 21.90465401 -10.73751157 19.31458457 -14.39941406 16.65942383 C-15.06183105 16.18102051 -15.72424805 15.70261719 -16.40673828 15.2097168 C-16.88127441 14.78319824 -17.35581055 14.35667969 -17.84472656 13.91723633 C-17.84472656 13.25723633 -17.84472656 12.59723633 -17.84472656 11.91723633 C-15.45277513 9.62875882 -12.73865972 7.71726047 -10.09472656 5.72973633 C-9.0003125 4.8721875 -9.0003125 4.8721875 -7.88378906 3.99731445 C-7.17480469 3.46170898 -6.46582031 2.92610352 -5.73535156 2.37426758 C-5.08598633 1.87902588 -4.43662109 1.38378418 -3.76757812 0.87353516 C-1.84472656 -0.08276367 -1.84472656 -0.08276367 0 0 Z " fill="#070707" transform="translate(80.8447265625,71.082763671875)"/>
<path d="M0 0 C4.04489 3.15164346 6.96651742 6.57860102 7.9375 11.7109375 C9.27473007 26.68791426 9.27473007 26.68791426 5.328125 33.06640625 C0.69418552 38.54643019 -4.85309782 41.96879316 -12.0625 42.7109375 C-21.70512354 43.34532063 -30.52361574 43.08243227 -38.9375 37.9609375 C-44.96941511 31.57420385 -46.37986341 25.07455498 -46.27734375 16.53125 C-45.85416981 10.97613022 -44.27103563 7.14209811 -40.6875 2.8984375 C-29.68358213 -6.27149406 -12.36858039 -7.73036275 0 0 Z M-25.0625 10.7109375 C-27.00540817 15.4330491 -27.2325291 19.6397542 -26.4375 24.6484375 C-24.96761451 27.92227337 -24.3527015 29.28814766 -21.0625 30.7109375 C-16.21886854 30.66053844 -16.21886854 30.66053844 -12.375 28.0234375 C-9.87269385 23.61461238 -10.45263265 18.61668367 -11.0625 13.7109375 C-12.77912776 10.58422266 -13.849298 9.35797857 -16.9375 7.7109375 C-20.53774503 7.7109375 -22.18732165 8.5233018 -25.0625 10.7109375 Z " fill="#CD0808" transform="translate(405.0625,222.2890625)"/>
<path d="M0 0 C9.57 0 19.14 0 29 0 C29 14.85 29 29.7 29 45 C22.73 45 16.46 45 10 45 C10 33.78 10 22.56 10 11 C6.7 11 3.4 11 0 11 C0 7.37 0 3.74 0 0 Z " fill="#CD0505" transform="translate(320,219)"/>
<path d="M0 0 C1.32 0.66 2.64 1.32 4 2 C4 35.33 4 68.66 4 103 C2.35 102.67 0.7 102.34 -1 102 C-1.33 101.34 -1.66 100.68 -2 100 C-0.68 100.33 0.64 100.66 2 101 C2 68.33 2 35.66 2 2 C1.34 2 0.68 2 0 2 C0 1.34 0 0.68 0 0 Z " fill="#3E3E3F" transform="translate(106,168)"/>
<path d="M0 0 C1.98 0 3.96 0 6 0 C6.33 0.66 6.66 1.32 7 2 C5.35 1.67 3.7 1.34 2 1 C2 25.42 2 49.84 2 75 C-3.07693209 73.3076893 -5.20559694 72.3480027 -9 69 C-5.26512223 69.4979837 -3.18762365 69.87491756 0 72 C0 48.24 0 24.48 0 0 Z " fill="#444545" transform="translate(75,177)"/>
<path d="M0 0 C2.475 0.495 2.475 0.495 5 1 C5.33 1.66 5.66 2.32 6 3 C4.68 3 3.36 3 2 3 C1.67 36 1.34 69 1 103 C0.67 103 0.34 103 0 103 C0 69.01 0 35.02 0 0 Z " fill="#545454" transform="translate(22,120)"/>
<path d="M0 0 C2.97 0 5.94 0 9 0 C9 2.97 9 5.94 9 9 C6.03 9 3.06 9 0 9 C0 6.03 0 3.06 0 0 Z " fill="#CF1313" transform="translate(351,255)"/>
<path d="M0 0 C0.93423645 3.01031744 1.04449911 3.86650268 0 7 C1.32 7.33 2.64 7.66 4 8 C-1.75 11 -1.75 11 -4 11 C-3.52269162 9.5410574 -3.04308958 8.08286504 -2.5625 6.625 C-2.29566406 5.81289063 -2.02882813 5.00078125 -1.75390625 4.1640625 C-1 2 -1 2 0 0 Z " fill="#414141" transform="translate(121,262)"/>
<path d="M0 0 C0.33 0 0.66 0 1 0 C1 3.96 1 7.92 1 12 C-3.92129494 11.01574101 -5.40538913 10.1837982 -9 7 C-5.26512223 7.4979837 -3.18762365 7.87491756 0 10 C0 6.7 0 3.4 0 0 Z " fill="#303030" transform="translate(75,239)"/>
<path d="M0 0 C2.475 0.495 2.475 0.495 5 1 C5.33 1.66 5.66 2.32 6 3 C4.68 3 3.36 3 2 3 C1.67 5.64 1.34 8.28 1 11 C0.67 11 0.34 11 0 11 C0 7.37 0 3.74 0 0 Z " fill="#474747" transform="translate(22,120)"/>
</svg>
